<mxfile host="app.diagrams.net" modified="2024-06-13T12:45:26.291Z" agent="Mozilla/5.0 (Windows NT 10.0; Win64; x64) AppleWebKit/537.36 (KHTML, like Gecko) Chrome/125.0.0.0 Safari/537.36 Edg/125.0.0.0" etag="LSMxNdH5Z73bnH8Gy8Cm" version="24.5.3" type="github">
  <diagram name="第 1 页" id="zLvAI-FJ5JkZ7GB5wCo7">
    <mxGraphModel dx="925" dy="475" grid="1" gridSize="10" guides="1" tooltips="1" connect="1" arrows="1" fold="1" page="1" pageScale="1" pageWidth="827" pageHeight="1169" math="0" shadow="0">
      <root>
        <mxCell id="0" />
        <mxCell id="1" parent="0" />
        <mxCell id="-gjgc2kq5emyqP7O4noD-1" value="" style="rounded=1;whiteSpace=wrap;html=1;" vertex="1" parent="1">
          <mxGeometry x="240" y="500" width="420" height="70" as="geometry" />
        </mxCell>
        <mxCell id="-gjgc2kq5emyqP7O4noD-2" value="&lt;font style=&quot;font-size: 24px;&quot;&gt;接入层&lt;/font&gt;" style="text;strokeColor=none;align=center;fillColor=none;html=1;verticalAlign=middle;whiteSpace=wrap;rounded=0;" vertex="1" parent="1">
          <mxGeometry x="100" y="520" width="150" height="30" as="geometry" />
        </mxCell>
        <mxCell id="-gjgc2kq5emyqP7O4noD-3" value="api统一接入" style="rounded=1;whiteSpace=wrap;html=1;" vertex="1" parent="1">
          <mxGeometry x="250" y="530" width="90" height="30" as="geometry" />
        </mxCell>
        <mxCell id="-gjgc2kq5emyqP7O4noD-4" value="网关" style="text;strokeColor=none;align=center;fillColor=none;html=1;verticalAlign=middle;whiteSpace=wrap;rounded=0;" vertex="1" parent="1">
          <mxGeometry x="414" y="500" width="60" height="30" as="geometry" />
        </mxCell>
        <mxCell id="-gjgc2kq5emyqP7O4noD-5" value="权限控制" style="rounded=1;whiteSpace=wrap;html=1;" vertex="1" parent="1">
          <mxGeometry x="460" y="530" width="90" height="30" as="geometry" />
        </mxCell>
        <mxCell id="-gjgc2kq5emyqP7O4noD-6" value="" style="rounded=1;whiteSpace=wrap;html=1;" vertex="1" parent="1">
          <mxGeometry x="240" y="610" width="420" height="70" as="geometry" />
        </mxCell>
        <mxCell id="-gjgc2kq5emyqP7O4noD-7" value="&lt;span style=&quot;font-size: 24px;&quot;&gt;应用层&lt;/span&gt;" style="text;strokeColor=none;align=center;fillColor=none;html=1;verticalAlign=middle;whiteSpace=wrap;rounded=0;" vertex="1" parent="1">
          <mxGeometry x="100" y="630" width="150" height="30" as="geometry" />
        </mxCell>
        <mxCell id="-gjgc2kq5emyqP7O4noD-8" value="spring boot" style="rounded=1;whiteSpace=wrap;html=1;" vertex="1" parent="1">
          <mxGeometry x="260" y="640" width="100" height="30" as="geometry" />
        </mxCell>
        <mxCell id="-gjgc2kq5emyqP7O4noD-9" value="spring cloud" style="rounded=1;whiteSpace=wrap;html=1;" vertex="1" parent="1">
          <mxGeometry x="380" y="640" width="100" height="30" as="geometry" />
        </mxCell>
        <mxCell id="-gjgc2kq5emyqP7O4noD-10" value="nacos" style="rounded=1;whiteSpace=wrap;html=1;" vertex="1" parent="1">
          <mxGeometry x="500" y="640" width="100" height="30" as="geometry" />
        </mxCell>
        <mxCell id="-gjgc2kq5emyqP7O4noD-11" value="微服务框架" style="text;strokeColor=none;align=center;fillColor=none;html=1;verticalAlign=middle;whiteSpace=wrap;rounded=0;" vertex="1" parent="1">
          <mxGeometry x="407" y="610" width="86" height="30" as="geometry" />
        </mxCell>
        <mxCell id="-gjgc2kq5emyqP7O4noD-12" value="" style="rounded=1;whiteSpace=wrap;html=1;" vertex="1" parent="1">
          <mxGeometry x="240" y="700" width="420" height="70" as="geometry" />
        </mxCell>
        <mxCell id="-gjgc2kq5emyqP7O4noD-14" value="gateway&lt;span style=&quot;font-family: monospace; font-size: 0px; text-align: start; text-wrap: nowrap;&quot;&gt;%3CmxGraphModel%3E%3Croot%3E%3CmxCell%20id%3D%220%22%2F%3E%3CmxCell%20id%3D%221%22%20parent%3D%220%22%2F%3E%3CmxCell%20id%3D%222%22%20value%3D%22api%E7%BB%9F%E4%B8%80%E6%8E%A5%E5%85%A5%22%20style%3D%22rounded%3D1%3BwhiteSpace%3Dwrap%3Bhtml%3D1%3B%22%20vertex%3D%221%22%20parent%3D%221%22%3E%3CmxGeometry%20x%3D%22270%22%20y%3D%22530%22%20width%3D%22100%22%20height%3D%2230%22%20as%3D%22geometry%22%2F%3E%3C%2FmxCell%3E%3C%2Froot%3E%3C%2FmxGraphModel%3E&lt;/span&gt;" style="rounded=1;whiteSpace=wrap;html=1;" vertex="1" parent="1">
          <mxGeometry x="350" y="530" width="94" height="30" as="geometry" />
        </mxCell>
        <mxCell id="-gjgc2kq5emyqP7O4noD-15" value="shiro" style="rounded=1;whiteSpace=wrap;html=1;" vertex="1" parent="1">
          <mxGeometry x="560" y="530" width="90" height="30" as="geometry" />
        </mxCell>
        <mxCell id="-gjgc2kq5emyqP7O4noD-16" value="&lt;span style=&quot;font-size: 24px;&quot;&gt;存储&lt;/span&gt;" style="text;strokeColor=none;align=center;fillColor=none;html=1;verticalAlign=middle;whiteSpace=wrap;rounded=0;" vertex="1" parent="1">
          <mxGeometry x="100" y="720" width="150" height="30" as="geometry" />
        </mxCell>
        <mxCell id="-gjgc2kq5emyqP7O4noD-17" value="redis&lt;span style=&quot;font-family: monospace; font-size: 0px; text-align: start; text-wrap: nowrap;&quot;&gt;%3CmxGraphModel%3E%3Croot%3E%3CmxCell%20id%3D%220%22%2F%3E%3CmxCell%20id%3D%221%22%20parent%3D%220%22%2F%3E%3CmxCell%20id%3D%222%22%20value%3D%22spring%20boot%22%20style%3D%22rounded%3D1%3BwhiteSpace%3Dwrap%3Bhtml%3D1%3B%22%20vertex%3D%221%22%20parent%3D%221%22%3E%3CmxGeometry%20x%3D%22260%22%20y%3D%22640%22%20width%3D%22100%22%20height%3D%2230%22%20as%3D%22geometry%22%2F%3E%3C%2FmxCell%3E%3C%2Froot%3E%3C%2FmxGraphModel%3E&lt;/span&gt;" style="rounded=1;whiteSpace=wrap;html=1;" vertex="1" parent="1">
          <mxGeometry x="270" y="730" width="100" height="30" as="geometry" />
        </mxCell>
        <mxCell id="-gjgc2kq5emyqP7O4noD-18" value="mysql" style="rounded=1;whiteSpace=wrap;html=1;" vertex="1" parent="1">
          <mxGeometry x="400" y="730" width="100" height="30" as="geometry" />
        </mxCell>
        <mxCell id="-gjgc2kq5emyqP7O4noD-19" value="" style="rounded=1;whiteSpace=wrap;html=1;" vertex="1" parent="1">
          <mxGeometry x="700" y="600" width="90" height="90" as="geometry" />
        </mxCell>
        <mxCell id="-gjgc2kq5emyqP7O4noD-20" value="RocketMQ" style="rounded=1;whiteSpace=wrap;html=1;" vertex="1" parent="1">
          <mxGeometry x="705" y="630" width="80" height="40" as="geometry" />
        </mxCell>
        <mxCell id="-gjgc2kq5emyqP7O4noD-21" value="异步任务处理" style="text;strokeColor=none;align=center;fillColor=none;html=1;verticalAlign=middle;whiteSpace=wrap;rounded=0;" vertex="1" parent="1">
          <mxGeometry x="700" y="600" width="86" height="30" as="geometry" />
        </mxCell>
      </root>
    </mxGraphModel>
  </diagram>
</mxfile>
